<svg width="200" height="200" viewBox="0 0 200 200" fill="none" xmlns="http://www.w3.org/2000/svg">
<path d="M126.893 149.794L97.1082 106.518L92.8669 100.358L58.3046 50.1413H73.1718L101.123 90.7523L105.364 96.9128L141.761 149.794H126.893ZM147.907 145.566L110.392 91.0641L106.151 84.9007L79.3152 45.914L77.0911 42.6827H44.1156L52.1578 54.3696L87.8388 106.213L92.0803 112.37L120.749 154.025L122.974 157.253H155.95L147.907 145.566Z" fill="black"/>
<path d="M92.8667 100.358L97.1084 106.518L92.0801 112.37L53.5003 157.253H43.9867L87.8387 106.213L92.8667 100.358Z" fill="black"/>
<path d="M151.979 42.6828L110.392 91.0641L105.364 96.9128L101.123 90.7524L106.151 84.9007L134.322 52.1112L142.466 42.6828H151.979Z" fill="black"/>
</svg>
